<?xml version="1.0" encoding="UTF-8" standalone="no"?>
<!DOCTYPE svg PUBLIC "-//W3C//DTD SVG 1.1//EN" "http://www.w3.org/Graphics/SVG/1.1/DTD/svg11.dtd">
<svg width="100%" height="100%" viewBox="0 0 700 700" version="1.1" xmlns="http://www.w3.org/2000/svg" xmlns:xlink="http://www.w3.org/1999/xlink" xml:space="preserve" xmlns:serif="http://www.serif.com/" style="fill-rule:evenodd;clip-rule:evenodd;stroke-linejoin:round;stroke-miterlimit:1.41421;">
    <path id="frame" d="M676.313,0C689.387,0.001 700,10.614 700,23.687L700,676.313C700,689.386 689.386,700 676.313,700L23.687,700C10.614,700 0,689.386 0,676.313L0,23.687C0,10.614 10.613,0.001 23.687,0L676.313,0ZM653.333,66.162L45.973,66.162L45.973,673.522L653.333,673.522L653.333,66.162Z" style="fill:rgb(235,235,235);"/>
    <g transform="matrix(1,0,0,1,-134.747,-82.3861)">
        <circle cx="228.285" cy="114.927" r="11.569" style="fill:rgb(24,217,0);"/>
    </g>
    <g transform="matrix(1,0,0,1,-170.743,-82.3861)">
        <circle cx="228.285" cy="114.927" r="11.569" style="fill:rgb(255,57,57);"/>
    </g>
    <g transform="matrix(0.922794,0,0,1,31.0774,0)">
        <path d="M674.317,28.66C674.317,24.417 670.583,20.971 665.985,20.971L112.952,20.971C108.354,20.971 104.621,24.417 104.621,28.66L104.621,36.421C104.621,40.664 108.354,44.11 112.952,44.11L665.985,44.11C670.583,44.11 674.317,40.664 674.317,36.421L674.317,28.66Z" style="fill:white;"/>
    </g>
</svg>
