<?xml version="1.0" encoding="UTF-8" standalone="no"?>
<!DOCTYPE svg PUBLIC "-//W3C//DTD SVG 1.1//EN" "http://www.w3.org/Graphics/SVG/1.1/DTD/svg11.dtd">
<svg width="100%" height="100%" viewBox="0 0 522 944" version="1.1" xmlns="http://www.w3.org/2000/svg" xmlns:xlink="http://www.w3.org/1999/xlink" xml:space="preserve" xmlns:serif="http://www.serif.com/" style="fill-rule:evenodd;clip-rule:evenodd;stroke-linejoin:round;stroke-miterlimit:1.41421;">
    <rect id="Artboard1" x="0" y="0" width="521.389" height="943.275" style="fill:none;"/>
    <clipPath id="_clip1">
        <rect id="Artboard11" serif:id="Artboard1" x="0" y="0" width="521.389" height="943.275"/>
    </clipPath>
    <g clip-path="url(#_clip1)">
        <g transform="matrix(1,0,0,1,-239.306,-28.3623)">
            <path d="M716.587,971.638L283.413,971.638C259.069,971.638 239.306,951.874 239.306,927.53L239.306,72.47C239.306,48.126 259.069,28.363 283.413,28.362L716.587,28.362C740.931,28.363 760.694,48.126 760.694,72.47L760.694,927.53C760.694,951.874 740.931,971.637 716.587,971.638ZM500,878.646C518.509,878.646 533.536,893.673 533.536,912.182C533.536,930.691 518.509,945.718 500,945.718C481.491,945.718 466.464,930.691 466.464,912.182C466.464,893.673 481.491,878.646 500,878.646ZM728.073,122.512L271.927,122.512L271.927,854.427L728.073,854.427L728.073,122.512ZM557.076,69.433L442.924,69.433C440.503,69.433 438.539,71.398 438.539,73.818L438.539,82.588C438.539,85.008 440.504,86.973 442.924,86.973L557.076,86.973C559.496,86.973 561.461,85.008 561.461,82.588L561.461,73.818C561.461,71.398 559.497,69.433 557.076,69.433Z" style="fill:rgb(235,235,235);"/>
        </g>
    </g>
</svg>
