<?xml version="1.0" standalone="no"?>
<!DOCTYPE svg PUBLIC "-//W3C//DTD SVG 20010904//EN"
 "http://www.w3.org/TR/2001/REC-SVG-20010904/DTD/svg10.dtd">
<svg version="1.0" xmlns="http://www.w3.org/2000/svg"
 width="1000.000000pt" height="1000.000000pt" viewBox="0 0 1000.000000 1000.000000"
 preserveAspectRatio="xMidYMid meet">
<metadata>
Created by potrace 1.11, written by Peter Selinger 2001-2013
</metadata>
<g transform="translate(0.000000,1000.000000) scale(0.100000,-0.100000)"
fill="#000000" stroke="none">
<path d="M4680 9989 c-1232 -79 -2377 -605 -3245 -1491 -210 -213 -317 -340
-487 -573 -733 -1010 -1060 -2269 -912 -3510 135 -1141 643 -2174 1466 -2980
213 -210 340 -317 573 -487 1164 -845 2645 -1143 4055 -817 790 182 1514 551
2145 1093 181 155 457 442 622 646 957 1185 1318 2765 972 4260 -186 808 -564
1540 -1125 2180 -101 116 -359 372 -469 466 -501 430 -1041 741 -1657 954
-610 210 -1287 301 -1938 259z m585 -619 c590 -38 1117 -176 1640 -429 1775
-858 2761 -2807 2399 -4741 -257 -1372 -1150 -2540 -2404 -3144 -1107 -532
-2375 -577 -3520 -124 -1321 523 -2330 1697 -2645 3078 -133 581 -148 1182
-45 1760 210 1179 897 2220 1905 2887 783 519 1736 773 2670 713z"/>
<path d="M4730 8919 c-226 -17 -433 -48 -645 -99 -1481 -353 -2634 -1547
-2934 -3039 -106 -523 -106 -1039 0 -1562 193 -962 745 -1818 1544 -2398 605
-439 1285 -684 2050 -741 608 -44 1268 73 1841 326 445 197 840 469 1190 818
682 683 1072 1542 1144 2521 31 424 -19 895 -140 1324 -324 1147 -1158 2088
-2263 2555 -545 231 -1201 339 -1787 295z m-280 -2212 l0 -1074 163 81 c272
135 504 211 741 242 291 39 629 -18 856 -143 281 -156 488 -379 635 -686 127
-264 179 -518 178 -877 0 -592 -179 -1057 -547 -1426 -176 -175 -329 -284
-561 -397 -226 -111 -478 -167 -890 -197 -157 -11 -955 -13 -1287 -3 l-218 6
-2 2451 -3 2451 -273 3 -273 2 3 146 3 146 545 173 545 173 193 1 192 1 0
-1073z"/>
<path d="M4775 5373 c-57 -7 -290 -44 -307 -49 -17 -5 -18 -78 -18 -1356 l0
-1350 253 5 c261 6 375 20 527 65 416 126 665 429 750 915 51 293 53 580 5
857 -51 299 -191 558 -385 712 -63 50 -194 120 -278 149 -132 46 -396 71 -547
52z"/>
</g>
</svg>
